<svg xmlns="http://www.w3.org/2000/svg" width="256" height="46" viewBox="0 0 256 46" fill="none"><rect width="256" height="46" rx="8" fill="white"></rect><path fill-rule="evenodd" clip-rule="evenodd" d="M235 17C232.791 17 231 18.7909 231 21C231 23.2091 232.791 25 235 25C237.209 25 239 23.2091 239 21C239 18.7909 237.209 17 235 17ZM229 21C229 17.6863 231.686 15 235 15C238.314 15 241 17.6863 241 21C241 22.2958 240.589 23.4957 239.891 24.4765L244.707 29.2929C245.098 29.6834 245.098 30.3166 244.707 30.7071C244.317 31.0976 243.683 31.0976 243.293 30.7071L238.477 25.8907C237.496 26.5892 236.296 27 235 27C231.686 27 229 24.3137 229 21Z" fill="#111827"></path></svg>